<?xml version="1.0" encoding="UTF-8" standalone="no"?>
<!-- Created with Inkscape (http://www.inkscape.org/) -->

<svg
   xmlns:dc="http://purl.org/dc/elements/1.1/"
   xmlns:cc="http://creativecommons.org/ns#"
   xmlns:rdf="http://www.w3.org/1999/02/22-rdf-syntax-ns#"
   xmlns:svg="http://www.w3.org/2000/svg"
   xmlns="http://www.w3.org/2000/svg"
   xmlns:sodipodi="http://sodipodi.sourceforge.net/DTD/sodipodi-0.dtd"
   xmlns:inkscape="http://www.inkscape.org/namespaces/inkscape"
   width="128"
   height="128"
   viewBox="0 0 128 128"
   id="svg2"
   version="1.1"
   inkscape:version="0.91 r13725"
   sodipodi:docname="favicon.svg"
   inkscape:export-filename="/home/weebee/Projects/fcc_projects/fcc-project-game-of-life/public/favicon.png"
   inkscape:export-xdpi="90"
   inkscape:export-ydpi="90">
  <defs
     id="defs4" />
  <sodipodi:namedview
     id="base"
     pagecolor="#ffffff"
     bordercolor="#666666"
     borderopacity="1.0"
     inkscape:pageopacity="0.0"
     inkscape:pageshadow="2"
     inkscape:zoom="1.979899"
     inkscape:cx="10.996889"
     inkscape:cy="44.718692"
     inkscape:document-units="px"
     inkscape:current-layer="g4149"
     showgrid="false"
     units="px"
     inkscape:window-width="1366"
     inkscape:window-height="715"
     inkscape:window-x="0"
     inkscape:window-y="27"
     inkscape:window-maximized="1" />
  <metadata
     id="metadata7">
    <rdf:RDF>
      <cc:Work
         rdf:about="">
        <dc:format>image/svg+xml</dc:format>
        <dc:type
           rdf:resource="http://purl.org/dc/dcmitype/StillImage" />
        <dc:title></dc:title>
      </cc:Work>
    </rdf:RDF>
  </metadata>
  <g
     inkscape:label="Layer 1"
     inkscape:groupmode="layer"
     id="layer1"
     transform="translate(0,-924.36216)">
    <g
       id="g4149">
      <path
         style="opacity:1;fill:#e5abcb;fill-opacity:1;stroke:none;stroke-width:4;stroke-miterlimit:4;stroke-dasharray:none;stroke-opacity:1"
         id="path4210"
         sodipodi:type="arc"
         sodipodi:cx="21.111679"
         sodipodi:cy="946.27588"
         sodipodi:rx="20"
         sodipodi:ry="20"
         sodipodi:start="3.0710639"
         sodipodi:end="3.0650076"
         sodipodi:open="true"
         d="M 1.1614015,947.68528 A 20,20 0 0 1 19.672069,926.32776 20,20 0 0 1 41.057597,944.80607 20,20 0 0 1 22.611689,966.21955 20,20 0 0 1 1.1703031,947.80608" />
      <path
         style="opacity:1;fill:#e5abcb;fill-opacity:1;stroke:none;stroke-width:4;stroke-miterlimit:4;stroke-dasharray:none;stroke-opacity:1"
         id="path4210-0"
         sodipodi:type="arc"
         sodipodi:cx="107.1777"
         sodipodi:cy="946.27588"
         sodipodi:rx="20"
         sodipodi:ry="20"
         sodipodi:start="3.0710639"
         sodipodi:end="3.0650076"
         sodipodi:open="true"
         d="m 87.227419,947.68528 a 20,20 0 0 1 18.510671,-21.35752 20,20 0 0 1 21.38552,18.47831 20,20 0 0 1 -18.4459,21.41348 20,20 0 0 1 -21.44139,-18.41347" />
      <path
         style="opacity:1;fill:#992e69;fill-opacity:1;stroke:none;stroke-width:4;stroke-miterlimit:4;stroke-dasharray:none;stroke-opacity:1"
         id="path4210-2"
         sodipodi:type="arc"
         sodipodi:cx="64.144684"
         sodipodi:cy="946.27588"
         sodipodi:rx="20"
         sodipodi:ry="20"
         sodipodi:start="3.0710639"
         sodipodi:end="3.0650076"
         sodipodi:open="true"
         d="M 44.194406,947.68528 A 20,20 0 0 1 62.705073,926.32776 20,20 0 0 1 84.090602,944.80607 20,20 0 0 1 65.644694,966.21955 20,20 0 0 1 44.203308,947.80608" />
      <path
         style="opacity:1;fill:#e5abcb;fill-opacity:1;stroke:none;stroke-width:4;stroke-miterlimit:4;stroke-dasharray:none;stroke-opacity:1"
         id="path4210-3"
         sodipodi:type="arc"
         sodipodi:cx="21.111679"
         sodipodi:cy="988.96503"
         sodipodi:rx="20"
         sodipodi:ry="20"
         sodipodi:start="3.0710639"
         sodipodi:end="3.0650076"
         sodipodi:open="true"
         d="M 1.1614015,990.37443 A 20,20 0 0 1 19.672069,969.01691 20,20 0 0 1 41.057597,987.49522 20,20 0 0 1 22.611689,1008.9087 20,20 0 0 1 1.1703031,990.49523" />
      <path
         style="opacity:1;fill:#992e69;fill-opacity:1;stroke:none;stroke-width:4;stroke-miterlimit:4;stroke-dasharray:none;stroke-opacity:1"
         id="path4210-0-7"
         sodipodi:type="arc"
         sodipodi:cx="107.1777"
         sodipodi:cy="988.96503"
         sodipodi:rx="20"
         sodipodi:ry="20"
         sodipodi:start="3.0710639"
         sodipodi:end="3.0650076"
         sodipodi:open="true"
         d="m 87.227419,990.37443 a 20,20 0 0 1 18.510671,-21.35752 20,20 0 0 1 21.38552,18.47831 20,20 0 0 1 -18.4459,21.41348 20,20 0 0 1 -21.44139,-18.41347" />
      <path
         style="opacity:1;fill:#e5abcb;fill-opacity:1;stroke:none;stroke-width:4;stroke-miterlimit:4;stroke-dasharray:none;stroke-opacity:1"
         id="path4210-2-5"
         sodipodi:type="arc"
         sodipodi:cx="64.144684"
         sodipodi:cy="988.96503"
         sodipodi:rx="20"
         sodipodi:ry="20"
         sodipodi:start="3.0710639"
         sodipodi:end="3.0650076"
         sodipodi:open="true"
         d="M 44.194406,990.37443 A 20,20 0 0 1 62.705073,969.01691 20,20 0 0 1 84.090602,987.49522 20,20 0 0 1 65.644694,1008.9087 20,20 0 0 1 44.203308,990.49523" />
      <path
         style="opacity:1;fill:#992e69;fill-opacity:1;stroke:none;stroke-width:4;stroke-miterlimit:4;stroke-dasharray:none;stroke-opacity:1"
         id="path4210-9"
         sodipodi:type="arc"
         sodipodi:cx="21.111679"
         sodipodi:cy="1031.6542"
         sodipodi:rx="20"
         sodipodi:ry="20"
         sodipodi:start="3.0710639"
         sodipodi:end="3.0650076"
         sodipodi:open="true"
         d="m 1.1614015,1033.0636 a 20,20 0 0 1 18.5106675,-21.3575 20,20 0 0 1 21.385528,18.4783 20,20 0 0 1 -18.445908,21.4134 20,20 0 0 1 -21.4413859,-18.4134" />
      <path
         style="opacity:1;fill:#992e69;fill-opacity:1;stroke:none;stroke-width:4;stroke-miterlimit:4;stroke-dasharray:none;stroke-opacity:1"
         id="path4210-0-2"
         sodipodi:type="arc"
         sodipodi:cx="107.1777"
         sodipodi:cy="1031.6542"
         sodipodi:rx="20"
         sodipodi:ry="20"
         sodipodi:start="3.0710639"
         sodipodi:end="3.0650076"
         sodipodi:open="true"
         d="m 87.227419,1033.0636 a 20,20 0 0 1 18.510671,-21.3575 20,20 0 0 1 21.38552,18.4783 20,20 0 0 1 -18.4459,21.4134 20,20 0 0 1 -21.44139,-18.4134" />
      <path
         style="opacity:1;fill:#992e69;fill-opacity:1;stroke:none;stroke-width:4;stroke-miterlimit:4;stroke-dasharray:none;stroke-opacity:1"
         id="path4210-2-2"
         sodipodi:type="arc"
         sodipodi:cx="64.144684"
         sodipodi:cy="1031.6542"
         sodipodi:rx="20"
         sodipodi:ry="20"
         sodipodi:start="3.0710639"
         sodipodi:end="3.0650076"
         sodipodi:open="true"
         d="m 44.194406,1033.0636 a 20,20 0 0 1 18.510667,-21.3575 20,20 0 0 1 21.385529,18.4783 20,20 0 0 1 -18.445908,21.4134 20,20 0 0 1 -21.441386,-18.4134" />
    </g>
  </g>
</svg>
